# xmcd CD database file
# Copyright (C) 1997 Ti Kan
# 
# Track frame offsets:
#     150
#     16084
#     34572
#     50572
#     63977
#     78879
#     92435
#     107810
#     122940
#     133907
# 
# Disc length: 2020 seconds
# 
# Revision: 1
# Processed by: cddbd v1.4b41PL1 Copyright (c) Steve Scherf et al.
# Submitted via: DiscPlay 4.0.4
# 
DISCID=7a07e20a
DTITLE=John McNeil - Straight from the heart
DYEAR=1900
DGENRE=
TTITLE0=Moonlight
TTITLE1=There but for the grace of god
TTITLE2=Jolene
TTITLE3=X-Rated dream
TTITLE4=Grama's Arms
TTITLE5=Hey Mr. Radio
TTITLE6=Tennessee Girl
TTITLE7=Hey Mr. Bartender
TTITLE8=Calgary Express
TTITLE9=My Street
EXTD=
EXTT0=
EXTT1=
EXTT2=
EXTT3=
EXTT4=(Ina Prime]\n
EXTT5=
EXTT6=
EXTT7=
EXTT8=
EXTT9=
PLAYORDER=
